<svg width="13" height="13" viewBox="0 0 13 13" fill="none" xmlns="http://www.w3.org/2000/svg">
<path d="M4.33325 4.33334V3.25C4.33325 2.05339 5.3033 1.08334 6.49992 1.08334L9.74992 1.08334C10.9465 1.08334 11.9166 2.05339 11.9166 3.25V6.5C11.9166 7.69662 10.9465 8.66667 9.74992 8.66667H8.66659M4.33325 4.33334H3.24992C2.0533 4.33334 1.08325 5.30339 1.08325 6.5V9.75C1.08325 10.9466 2.0533 11.9167 3.24992 11.9167H6.49992C7.69654 11.9167 8.66659 10.9466 8.66659 9.75V8.66667M4.33325 4.33334H6.49992C7.69654 4.33334 8.66659 5.30339 8.66659 6.5V8.66667M3.24992 8.125L4.19936 8.88456C4.42571 9.06564 4.75451 9.03643 4.94539 8.81828L6.49992 7.04167" stroke="#FA5401" stroke-width="1.5" stroke-linecap="round" stroke-linejoin="round"/>
</svg>
